<?xml version="1.0" encoding="UTF-8" standalone="no"?><!DOCTYPE svg PUBLIC "-//W3C//DTD SVG 1.1//EN" "http://www.w3.org/Graphics/SVG/1.1/DTD/svg11.dtd"><svg width="100%" height="100%" viewBox="0 0 61 55" version="1.1" xmlns="http://www.w3.org/2000/svg" xmlns:xlink="http://www.w3.org/1999/xlink" xml:space="preserve" xmlns:serif="http://www.serif.com/" style="fill-rule:evenodd;clip-rule:evenodd;stroke-linecap:round;stroke-miterlimit:10;"><g id="ico--keys"><path d="M7.68,26.231l3.27,-3.27l3.271,3.27" style="fill:none;fill-rule:nonzero;stroke:#fff;stroke-width:1.5px;"/><path d="M52.68,28.464l-3.27,3.27l-3.271,-3.27" style="fill:none;fill-rule:nonzero;stroke:#fff;stroke-width:1.5px;"/><path d="M14.221,15.944c3.556,-4.992 9.367,-8.264 15.963,-8.264c10.836,0 19.622,8.786 19.622,19.622c-0,1.492 -0.181,2.939 -0.495,4.334" style="fill:none;fill-rule:nonzero;stroke:#fff;stroke-width:1.5px;"/><path d="M46.147,15.944c-5.019,1.687 -10.376,2.637 -15.963,2.637c-5.587,0 -10.944,-0.95 -15.963,-2.637" style="fill:none;fill-rule:nonzero;stroke:#fff;stroke-width:1.5px;"/><path d="M46.139,38.653c-3.556,4.992 -9.367,8.264 -15.963,8.264c-10.836,0 -19.622,-8.786 -19.622,-19.622c0,-1.492 0.181,-2.939 0.495,-4.334" style="fill:none;fill-rule:nonzero;stroke:#fff;stroke-width:1.5px;"/><path d="M14.213,38.653c0.978,-0.329 1.968,-0.629 2.971,-0.9c4.144,-1.121 8.493,-1.737 12.992,-1.737c4.497,0 8.846,0.616 12.988,1.736c1.004,0.271 1.996,0.572 2.975,0.901" style="fill:none;fill-rule:nonzero;stroke:#fff;stroke-width:1.5px;"/><path d="M38.36,27.302c-0,-10.829 -3.664,-19.622 -8.176,-19.622c-4.513,0 -8.176,8.793 -8.176,19.622c-0,10.83 3.663,19.622 8.176,19.622c4.512,0 8.176,-8.792 8.176,-19.622Z" style="fill:none;stroke:#fff;stroke-width:1.5px;"/></g></svg>