<?xml version="1.0" encoding="UTF-8" standalone="no"?><!DOCTYPE svg PUBLIC "-//W3C//DTD SVG 1.1//EN" "http://www.w3.org/Graphics/SVG/1.1/DTD/svg11.dtd"><svg width="100%" height="100%" viewBox="0 0 61 61" version="1.1" xmlns="http://www.w3.org/2000/svg" xmlns:xlink="http://www.w3.org/1999/xlink" xml:space="preserve" xmlns:serif="http://www.serif.com/" style="fill-rule:evenodd;clip-rule:evenodd;stroke-linecap:round;stroke-miterlimit:10;"><g id="ico--market"><path d="M33.866,26.391l-5.944,5.944" style="fill:none;fill-rule:nonzero;stroke:#fff;stroke-width:1.5px;"/><path d="M33.772,17.011l0,9.474l9.474,-0l9.473,-9.474l-6.317,-3.157l-3.156,-6.317l-9.474,9.474Z" style="fill:none;fill-rule:nonzero;stroke:#fff;stroke-width:1.5px;"/><path d="M26.667,12.213c-10.569,0.647 -18.947,9.398 -18.947,20.13c0,11.153 9.042,20.193 20.195,20.193c10.732,0 19.484,-8.378 20.13,-18.947" style="fill:none;fill-rule:nonzero;stroke:#fff;stroke-width:1.5px;"/><path d="M39.006,33.59c-0.627,5.602 -5.324,9.973 -11.094,9.973c-6.195,-0 -11.219,-5.023 -11.219,-11.219c0,-5.769 4.372,-10.466 9.974,-11.093" style="fill:none;fill-rule:nonzero;stroke:#fff;stroke-width:1.5px;"/></g></svg>